<?xml version="1.0" encoding="UTF-8"?><svg xmlns="http://www.w3.org/2000/svg" viewBox="0 0 78.87 77.98"><g id="a"/><g id="b"><g id="c"><g><g><path d="M35.54,26.46v-.1c.07,.02,.11,.09,.15,.17-.1-1.01-.97-1.81-1.81-2.17-.13-.24-.38-.37-.57-.28-.19,.09-.23,.35-.1,.6,.01,.07,.04,.13,.03,.19-.05,.5,.04,1.03,.2,1.57l-.02-.36c.04,.16,.09,.31,.18,.46l.06-.11c.07,.6,.58,1.15,1.1,1.23,.53,.08,.88-.33,.81-.92l-.03-.26Z"/><path d="M35.96,25c.05,.32,.11,.65,.16,.98l-.02,.09,.25-.19h-.02c-.37-.08-.73-.39-1.02-.71l-.12-.1c-.07-.04-.15-.05-.21-.02-.14,.05-.19,.24-.1,.42l.1,.21c.16,.56,.67,1.3,1.27,1.25,.14-.01,.23-.15,.34-.25,.18-.1,.21-.38,.06-.61-.15-.24-.41-.34-.59-.24l-.04-.14,.12,.05c-.19,.04-.37-.15-.56-.25l-.2-.21-.31,.4,.14,.09s.03-.06,.03-.06c.27,.16,.53,.3,.77,.51l.36,.22c.13,.03,.24-.05,.24-.19v-.2l-.02,.1c-.13-.39-.31-.76-.44-1.14-.01-.06-.07-.11-.13-.12-.05,0-.09,.06-.07,.12Z"/><g><path d="M36.8,26.1c0,.07,0,.15,.07,.22h.05v-.14c0-.11-.07-.12-.12-.08Z"/><path d="M36.92,26.32v.06l.02-.05h-.02Z"/><path d="M28.05,11.62c-.35-1.21-.69-2.38-1.03-3.54-.01-.04-.04-.07-.07-.06-.03,0-.04,.05-.03,.08,.34,1.17,.68,2.33,1.03,3.54,.01,.04,.05,.06,.08,.06,.03,0,.04-.05,.03-.08Z"/><path d="M28.18,2.16s.06,.01,.07-.02c.01-.03,0-.07-.03-.09-.02-.02-.06,0-.07,.02-.01,.03,0,.08,.02,.09Z"/><path d="M30.51,1.83c.08,.14,.17,.28,.28,.39,.02,.02,.02,.05,.02,.07,.04-.02,.09,0,.13,.05,.67,.99,1.16,2.09,1.72,3.15,.04,0,.08,0,.12,.01,.14,.04,.25,.18,.28,.34v.13c.12,.51,.22,1,.32,1.53,.09,.08,.16,.18,.22,.3,.3,.37,.57,.74,.84,1.12,.02-.04,.05-.07,.09-.08,.1-.03,.21,.04,.25,.15l.07,.17-.12-.52s-.01-.05,0-.07l-.21-.55c-.69-1.59-1.56-3.01-2.45-4.46-.02-.02-.03-.06-.01-.09,.02-.02,.05-.03,.07,0,.78,.85,1.69,1.49,2.38,2.46,.81,1.16,1.61,2.27,2.35,3.44,.55,1.32,1.3,2.43,2.11,3.64,1.09,1.64,2,3.23,3.01,4.84,.44,.56,.42,1.35-.04,1.75-.28,.25-.67,.3-1.03,.17l.09,.16,.09,.28c.09,.26,.08,.54-.01,.78l-.1,.31c-.26,.5-.36,1.08-.65,1.56l-.19,.07-.02,.08c-.02,.22-.1,.43-.24,.57l-.2,.12c-.24,.12-.5,.19-.77,.2-.08,.06-.17,.1-.26,.12-.13,.24-.3,.43-.58,.5-.01,.1-.11,.15-.2,.11-.03-.01-.06-.04-.09-.07h0c-.03,.07-.03,.09-.06,.17l.04,.12,.15,.35c.02,.17-.02,.31-.02,.31q-.25,.38-.41,.46h-.06l.03,.2s-.02,.09-.02,.09q-.08,.06-.09,.1s-.06,.05-.06,.05q-.13,0-.16,.02s-.07,0-.07,0l-.12-.08,.1-.3-.09,.02,.07-.1-.07,.08v-.12l-.02,.14q-.1-.21-.15-.28c-.04-.08-.11-.14-.12-.14-.02,.03-.04,.04-.04,.04l-.2-.44s.02-.06,.03-.08c-.04,0-.08-.03-.1-.07l-.05-.11h-.03l-.1-.07h-.02l-.43-.27c-.03-.07-.05-.13-.07-.2v.08c-.01,.05-.11,.07-.11,.09,.11,.55,.37,1.06,.6,1.58,.07,.08,.07,.19,.02,.24-.06,.05-.15,.03-.22-.05-1.06-.65-1.79-1.88-2.06-3.09l-.38-.86-.02,.06-.06-.24v-.02l-.06,.24,.02,.13c.32,.65,.43,1.35,.67,2.03,.13,.36,.17,.73,.27,1.09,.04,.08,.03,.17-.04,.2-.06,.03-.15-.02-.19-.1-.76-.93-1.4-2.17-1.39-3.28-.11-.19-.17-.39-.17-.6h0l-.05,.18c-.05-.16,0-.29-.03-.44l-.14,.14c-.31-.75-.76-1.49-.87-2.27l-.03-.08c-.27-.22-.53-.45-.72-.77l.12,.37c-.2-.21-.37-.42-.5-.69-.35-.72-.46-1.66-.19-2.25-.7-1.36-1.36-2.75-2.03-4.13-.04-.07-.02-.15,.02-.19,.05-.03,.12,0,.16,.07,.58,.95,1.11,1.92,1.64,2.9-.29-.88-.56-1.78-.9-2.66l-.16-.33c-.05-.11-.08-.23-.1-.34-.44-1.13-.8-2.21-1.32-3.34-.44-.92-.83-1.76-1.31-2.77-.65-1.36-1.23-2.62-1.55-4.06-.06-.19,0-.39,.14-.44,.14-.05,.3,.06,.36,.24,1.1,2.89,2.43,5.58,3.44,8.56l.32,.96s.03-.02,.05-.03c.07-.03,.15-.02,.23,0-.11-.36-.21-.73-.3-1.1-.52-.94-1.02-1.89-1.26-3-.18-.76-.2-1.48-.24-2.21-.33-.85-.66-1.7-.95-2.57-.02-.03-.01-.07,.01-.09,.02-.02,.06,0,.07,.03,.31,.58,.61,1.16,.89,1.76,.06-.12,.16-.21,.29-.23,.13-.03,.27,.02,.38,.12l-.1-.43c-.02-.09,.02-.17,.08-.18,.07-.02,.14,.04,.16,.12,.13,.58,.28,1.15,.43,1.72,.27,.67,.53,1.33,.79,1.98,.06-.12,.14-.22,.24-.29h0l-.11-.31c-.94-1.79-1.67-3.74-2.03-5.78,0-.04,0-.08,.04-.08,.03,0,.06,.02,.07,.05,.12,.61,.25,1.22,.42,1.82h0s.04-.04,.07-.02c.02,.02,.04,.07,.03,.09-.01,.03-.05,.04-.07,.02,.32,1.11,.75,2.18,1.25,3.21-.32-1-.62-2-.81-3.03l-.2-.31s0-.07,.02-.09c.02-.01,.06,0,.07,.03l.05,.09c-.04-.19,.05-.37,.21-.41,.16-.03,.32,.11,.37,.31l.46,1.57,.07,.16,.12,.15c-.17-.83-.29-1.66-.41-2.49-.02-.07,.01-.14,.07-.15,.05-.01,.11,.03,.13,.1,.56,1.37,1.08,2.76,1.62,4.14l1.14,1.17-.05-.18c-.49-1.51-1.54-2.61-2.06-4.09-.02-.04,0-.07,.03-.09,.03-.01,.06,0,.07,.05,.27,.72,.7,1.32,1.06,1.99,.3,.56,.61,1.08,.95,1.57-.41-1.09-1.02-2.09-1.45-3.18-.03-.05-.02-.1,0-.14-.02,0-.03,0-.05-.02-.11-.12-.2-.26-.29-.41-.02-.03-.02-.07,0-.09,.02-.02,.05-.01,.08,.02Zm5.12,20.58v.04l-.02-.12,.12-.25-.1,.33Zm1.73,1.13h0l-.06,.14,.06-.14Zm-7.53-9.72c.26,.61,.49,1.23,.62,1.89l-.23-.42c-.14-.48-.28-.97-.39-1.46Zm5.75,10.13c0-.21,.06-.4,.12-.59-.09-.08-.16-.17-.22-.28-.16-.28-.29-.57-.42-.85-.05,.08-.08,0-.11-.02l-.08-.09,.36,.95c.11,.29,.26,.59,.34,.88Zm1.55,1.75v.04l-.14,.02,.14-.06Zm.22-.04v-.05s.03,.01,0,.05Zm-.12-.44s-.02,.06-.02,.09l.02-.09Zm2.78-2.27l-.59,.21,.58-.18v-.03Z"/></g></g><g><path d="M45.73,50.35l-.05,.09c-.04-.05-.05-.13-.04-.22-.4,.93-.03,2.05,.52,2.78,0,.27,.15,.51,.36,.52,.2,.02,.37-.19,.38-.47,.02-.06,.03-.13,.06-.18,.29-.41,.47-.91,.59-1.46l-.16,.33c.04-.16,.08-.32,.07-.49l-.11,.07c.23-.55,.06-1.28-.36-1.61-.42-.33-.93-.14-1.15,.41l-.11,.24Z"/><path d="M44.65,51.42l.34-.94,.06-.07-.31,.05h.02c.28,.26,.44,.71,.54,1.13l.06,.15c.05,.07,.11,.11,.18,.12,.15,.02,.28-.12,.29-.32v-.23c.14-.57,.06-1.46-.49-1.71-.13-.06-.28,.02-.42,.05-.21,0-.37,.23-.36,.5,.01,.28,.19,.5,.4,.5l-.03,.15-.08-.1c.19,.06,.25,.31,.36,.49l.07,.28,.47-.2-.08-.14s-.05,.04-.05,.04c-.16-.27-.31-.52-.43-.82l-.21-.37c-.1-.09-.24-.07-.31,.05l-.09,.18,.05-.08c-.07,.4-.1,.82-.18,1.21-.02,.06,0,.14,.06,.16,.05,.02,.1,0,.12-.07Z"/><g><path d="M44.46,50.05c.03-.07,.06-.13,.05-.22l-.04-.03-.07,.13c-.05,.09,0,.14,.07,.12Z"/><path d="M44.46,49.79l.03-.06-.04,.04h0v.02Z"/><path d="M45.02,66.95c-.28,1.23-.55,2.41-.82,3.59,0,.04,0,.08,.04,.09,.03,0,.06-.02,.06-.06,.27-1.18,.55-2.36,.83-3.59,0-.04-.01-.08-.04-.09-.03,0-.06,.02-.07,.06Z"/><path d="M40.29,75.15s-.05-.04-.07-.02c-.02,.02-.04,.06-.02,.09,.01,.03,.05,.04,.07,.02,.03-.02,.04-.07,.02-.09Z"/><path d="M38.09,74.29c0-.16,0-.32-.05-.47,0-.03,0-.05,.02-.07-.05,0-.08-.04-.09-.1-.1-1.19,.01-2.39,.04-3.59-.04-.02-.07-.04-.1-.07-.1-.1-.13-.28-.08-.44l.05-.12,.48-1.48c-.04-.11-.05-.24-.04-.37-.08-.46-.14-.92-.19-1.39-.04,.02-.08,.03-.12,.03-.1-.02-.16-.14-.14-.26l.02-.18-.15,.51s-.01,.05-.03,.07l-.08,.58c-.17,1.72-.11,3.39-.04,5.09,0,.03,0,.07-.03,.09-.03,0-.06,0-.07-.03-.27-1.12-.75-2.12-.88-3.31-.14-1.4-.29-2.77-.38-4.15,.16-1.42,.05-2.76-.07-4.21-.15-1.96-.17-3.8-.27-5.69-.11-.71,.29-1.38,.89-1.51,.37-.08,.73,.06,.99,.35v-.18l.05-.29c.05-.27,.19-.51,.39-.67l.24-.22c.47-.3,.84-.77,1.33-1.04l.2,.03,.05-.06c.12-.19,.3-.32,.49-.38h.23c.27,0,.53,.07,.77,.19,.1-.01,.2,0,.29,.02,.23-.14,.47-.23,.75-.15,.06-.08,.16-.08,.23,0,.02,.03,.04,.07,.05,.1h0c.06-.05,.07-.06,.14-.12l.02-.12,.05-.38c.07-.16,.17-.26,.17-.26q.4-.21,.58-.2l.05,.03,.07-.19s.06-.07,.06-.07q.1-.02,.13-.04s.07-.01,.07-.01q.11,.06,.14,.06s.06,.04,.06,.04l.06,.13-.23,.21,.09,.03-.11,.06,.1-.04-.05,.1,.08-.12q-.02,.23,0,.32c0,.09,.03,.17,.03,.18,.03-.01,.06-.01,.06-.01l-.04,.48s-.04,.04-.06,.06c.03,.02,.05,.06,.05,.11v.15h.02l.06,.1v.02h.01l.24,.44c0,.07-.02,.14-.04,.21l.04-.06s.13-.01,.13-.03c.17-.53,.19-1.1,.24-1.67-.02-.1,.03-.2,.1-.22,.07-.02,.15,.04,.17,.15,.61,1.09,.64,2.51,.29,3.7l-.09,.93,.04-.05-.07,.24v.03l.16-.19,.04-.13c.04-.72,.28-1.39,.4-2.1,.07-.38,.2-.72,.3-1.08,0-.09,.06-.16,.13-.16,.07,0,.12,.09,.12,.18,.21,1.19,.16,2.57-.39,3.54,0,.22-.04,.43-.14,.6h0l.14-.13c-.03,.16-.15,.25-.19,.4l.19-.06c-.1,.8-.07,1.67-.35,2.4l-.02,.08c.13,.32,.24,.65,.25,1.03l.07-.38c.07,.28,.12,.55,.1,.85-.05,.8-.41,1.67-.93,2.05-.06,1.53-.15,3.06-.24,4.59,0,.08-.05,.14-.11,.15-.06,0-.1-.06-.1-.14-.04-1.11-.03-2.22-.02-3.33-.17,.91-.38,1.82-.51,2.76l-.02,.36c0,.12-.04,.24-.08,.35-.17,1.2-.38,2.32-.48,3.56-.07,1.02-.13,1.94-.21,3.06-.1,1.5-.2,2.88-.63,4.3-.04,.19-.19,.34-.34,.32-.15-.02-.23-.2-.19-.39,.45-3.06,.6-6.06,1.18-9.15l.19-.99s-.04,0-.06,0c-.08-.01-.15-.05-.2-.12-.08,.37-.17,.74-.27,1.11,0,1.07-.04,2.15-.36,3.24-.22,.75-.55,1.39-.87,2.05-.12,.9-.25,1.8-.43,2.71,0,.04-.03,.07-.06,.08-.03,0-.05-.02-.05-.06,.01-.65,.03-1.31,.09-1.97-.11,.08-.24,.1-.37,.06-.13-.04-.22-.15-.27-.28l-.12,.42c-.03,.09-.1,.14-.16,.12-.07-.02-.1-.1-.08-.18,.17-.57,.31-1.14,.46-1.71l.28-2.11c-.11,.08-.23,.13-.36,.13h0l-.06,.32c-.05,2.02-.36,4.08-1.05,6.04-.01,.04-.04,.06-.07,.06-.03,0-.05-.05-.03-.08,.2-.59,.38-1.19,.52-1.79h0s-.06,.02-.07-.02c-.01-.03,0-.08,.02-.09,.03-.02,.06-.01,.07,.02,.26-1.13,.41-2.27,.48-3.41-.2,1.03-.43,2.05-.77,3.04l.02,.36s-.03,.07-.06,.07c-.03,0-.05-.03-.05-.06v-.1c-.07,.19-.23,.3-.38,.25-.15-.05-.23-.25-.17-.45,.12-.54,.24-1.07,.37-1.59v-.18l-.02-.19c-.25,.81-.56,1.59-.86,2.37-.02,.07-.08,.11-.14,.1-.05-.01-.08-.08-.07-.15,.18-1.47,.4-2.94,.6-4.4l-.43-1.58-.04,.18c-.31,1.55,.07,3.03-.2,4.58,0,.04-.04,.06-.06,.06-.03,0-.05-.04-.04-.07,.11-.76,.04-1.49,.05-2.25,0-.63,0-1.24-.06-1.83-.17,1.16-.13,2.32-.29,3.48,0,.05-.03,.1-.06,.12,.01,0,.03,.02,.03,.04,.04,.16,.05,.33,.05,.5,0,.03-.02,.07-.05,.08-.03,0-.05-.02-.06-.05Zm5.58-20.46l.03-.03-.05,.11-.22,.16,.24-.24Zm-.96-1.83h0l.12-.09-.12,.09Zm1.83,12.16c.07-.66,.17-1.31,.38-1.95v.48c-.12,.49-.23,.98-.38,1.47Zm-.07-11.65c-.11,.18-.25,.32-.39,.46,.04,.11,.05,.23,.05,.35,0,.32-.02,.64-.05,.95,.08-.04,.07,.03,.08,.07l.02,.12,.15-1.01c.05-.31,.06-.64,.13-.94Zm-.5-2.28l.03-.03,.13,.05-.15-.02Zm-.21-.08v.05c-.06-.01-.04-.03,0-.05Zm-.11,.45s.05-.05,.06-.07l-.06,.07Zm-3.53,.62l.62,.11-.6-.12-.02,.02Z"/></g></g><g><path d="M24.02,37.43s.06,0,.07-.03c0-.02-.01-.05-.04-.05-.89-.21-1.77-.42-2.7-.64-.03,0-.06,0-.07,.03,0,.03,.01,.05,.04,.06,.93,.22,1.82,.43,2.7,.63Z"/><path d="M27.54,40.68s.03-.04,.01-.06c-.02-.02-.05-.03-.07-.02-.03,.01-.03,.04-.01,.06,.01,.02,.05,.03,.07,.02Z"/><path d="M29.4,38.17c-1.07-.29-2.12-.31-3.26-.34-.81-.02-1.51-.05-2.31-.08-.94-.05-1.78-.21-2.68-.34-.09-.03-.17-.06-.26-.06l-.27-.02c-.7-.11-1.39-.28-2.07-.43,.84,0,1.67,.01,2.51-.04,.06,0,.11-.04,.11-.09,0-.05-.05-.09-.11-.09-1.2-.07-2.32-.13-3.46-.19-.27-.45-.92-.77-1.52-.82-.22-.02-.43,.01-.64,.07l.28,.07c-.29,0-.53,.09-.78,.2l-.06-.02c-.54-.26-1.2-.25-1.8-.36l.04,.17c-.11-.04-.17-.15-.29-.18l.1,.12h0c-.13-.09-.29-.14-.45-.14-.37-.26-.82-.41-1.3-.48-.06-.07-.15-.12-.26-.13-.05-.02-.1-.03-.13-.06-.3-.26-.67-.44-1.08-.57l.2,.13s-.05-.02-.08-.01c-.08-.03-.16-.05-.25-.05l.02,.04c-.05,0-.11,0-.16,0-.19-.06-.38-.06-.57,0-.54,0-1.07,.03-1.63,.14-.66,.12-1.26,.3-1.89,.26-.62,.19-1.22,.45-1.84,.77-.52,.26-.93,.83-1.4,1.25-.01,.01-.02,.04-.01,.06,0,.02,.03,.03,.04,.01,.72-.35,1.45-.65,2.2-.68,.09,0,.17,0,.25,0,0,0,.02,.01,.03,.02,.07,.03,.15,.06,.22,.08-.03,0-.05,0-.08,0-.05,0-.1,.06-.11,.15,0,.04,0,.07,.01,.1-.2,.08-.4,.19-.6,.31-.06,0-.11,.03-.16,.08-.22-.08-.43-.14-.65-.21l-.05-.03c-.07-.02-.14,.03-.19,.13-.01,.03-.02,.06-.03,.1-.51,.15-1.03,.26-1.53,.58-.03,.02-.04,.05-.04,.09,0-.01-.02-.01-.03,0-.06,.07-.13,.11-.2,.14-.02,.01-.02,.04-.02,.06,0,.03,.02,.04,.03,.03,.07-.04,.14-.08,.21-.14,0,0,.01-.02,.01-.03,.01,.03,.03,.04,.06,.03,.5-.09,.99-.32,1.49-.35-.25,.14-.51,.24-.77,.34-.32,.12-.62,.31-.95,.38-.02,0-.03,.02-.03,.05,0,.02,.01,.05,.03,.04,.66-.09,1.26-.65,1.93-.61,.03,0,.05,0,.08,.01-.22,.2-.44,.4-.65,.6-.62,.05-1.25,.15-1.86,.31-.03,0-.06,.04-.06,.09,0,.05,.02,.09,.05,.09,.34,.09,.68,.18,1.03,.25-.03,.02-.05,.04-.08,.06-.02,0-.05,.01-.07,.02-.22,0-.45,0-.67,0-.08-.01-.16,.09-.17,.23,0,.14,.05,.25,.13,.27-.01,0-.03,.02-.04,.02-.01,0-.02,.03-.02,.05,0,.02,.02,.04,.03,.04,.05-.03,.1-.06,.15-.09,.42,.08,.85,.09,1.28,.08-.47,.13-.94,.22-1.41,.23,.01-.02,.01-.05,0-.06,0-.02-.03-.02-.04,0-.01,.02-.01,.05,0,.06h0c-.25,0-.5,0-.76-.04-.01,0-.03,.02-.03,.04,0,.03,.01,.05,.03,.05,.83,.11,1.67-.02,2.5-.29,.04,0,.09,0,.13,0h0c0,.11,.03,.2,.07,.28-.29,.03-.58,.07-.87,.11-.24-.02-.48-.05-.72-.07-.03,0-.07,.04-.07,.1,0,.06,.02,.1,.06,.11,.06,0,.12,.01,.18,.02-.05,.07-.09,.17-.1,.29,0,.11,0,.21,.04,.29-.26,.09-.53,.19-.79,.33-.02,0-.02,.03-.02,.06,0,.02,.02,.04,.03,.03,.37-.04,.73-.12,1.1-.18,.28,.15,.55,.32,.85,.39,.44,.1,.87-.02,1.3-.14,.15,.05,.3,.08,.45,.11-.02,.05-.04,.11-.04,.18,0,.02,0,.03,0,.05-.13-.02-.26-.03-.4-.05-1.24-.14-2.44,.27-3.65,.58-.08,.01-.14,.12-.14,.25,0,.13,.07,.22,.14,.21,.57,.03,1.11-.15,1.7-.34,.42-.13,.79-.22,1.21-.3,.49-.09,.94-.04,1.41,0,.05,.02,.09,.04,.14,.03h.14c.37,.03,.73,.13,1.09,.24-.44,.05-.88,.12-1.31,.26-.03,0-.05,.05-.05,.1,0,.05,.03,.09,.06,.08,.6-.07,1.2-.08,1.8-.09,.14,.44,.47,.72,.77,.75,.11,.01,.22-.03,.33-.09-.05-.02-.1-.04-.14-.06,.15,0,.28-.11,.41-.22,.01,0,.02,.01,.03,.02,.27,.26,.61,.23,.91,.35,0-.06,0-.11-.01-.17,.05,.05,.08,.15,.14,.18-.02-.04-.03-.08-.04-.12h0c.06,.1,.14,.14,.22,.15,.17,.27,.4,.43,.64,.51,.03,.07,.07,.12,.13,.13,.02,.02,.05,.04,.06,.07,.14,.28,.31,.47,.5,.63-.04-.05-.07-.11-.11-.16,.06,.05,.11,.09,.18,.1,0-.03-.01-.06-.02-.1,.19,.24,.47,.18,.63-.15,.02-.04,.02-.08,.04-.11,.21,.18,.49,.28,.78,.24,1.46-.01,2.86,0,4.37-.1,1.12-.08,2.14-.18,3.23-.05,1.06-.08,2.11-.23,3.19-.39,.91-.14,1.68-.58,2.54-.86,.02,0,.03-.04,.03-.06-.01-.02-.04-.03-.07-.02-1.3,.12-2.58,.22-3.9,.1-.15-.01-.3-.04-.44-.06-.01-.01-.03-.02-.05-.02l-.39-.12h.14c.09,.03,.18-.03,.2-.11,0-.04,0-.07-.02-.1,.36-.05,.71-.11,1.06-.19,.1,0,.2-.01,.28-.04,.39,.13,.75,.25,1.13,.37l.09,.04c.12,.04,.26,0,.34-.08,.03-.03,.04-.06,.06-.09,.92,0,1.84,.04,2.75-.1,.05,0,.08-.04,.08-.08,.01,.01,.03,.02,.05,.02,.12-.04,.24-.06,.36-.07,.03,0,.05-.03,.04-.05,0-.03-.03-.05-.06-.04-.13,.01-.26,.03-.38,.07-.01,0-.02,.02-.03,.03-.02-.03-.05-.05-.09-.05-.89-.09-1.78,0-2.66-.12,.46-.07,.92-.1,1.4-.11,.58-.02,1.14-.11,1.72-.05,.03,0,.05-.01,.06-.04,0-.02-.02-.05-.05-.05-1.18-.16-2.31,.22-3.5,0l-.14-.03c.4-.14,.81-.28,1.21-.41,1.12,.13,2.24,.25,3.36,.33,.05,.01,.11-.02,.12-.06,.01-.05-.02-.1-.08-.11-.6-.22-1.2-.44-1.81-.63l.15-.04h.14c.4,.09,.8,.18,1.21,.24,.15,.04,.3-.03,.34-.17,.04-.13-.05-.27-.19-.31h.08s.05-.03,.05-.05c0-.03-.03-.05-.05-.05l-.28,.03c-.75-.24-1.53-.4-2.31-.53,.87,.02,1.74,.1,2.6,.27-.02,.01-.03,.04-.01,.06,.01,.02,.05,.03,.07,.02,.02-.01,.03-.04,.01-.06h0c.46,.09,.92,.21,1.37,.35,.03,0,.05,0,.06-.03,0-.03-.01-.05-.04-.06-1.49-.47-3.06-.65-4.6-.63l-.24-.04h0c0-.11-.04-.21-.1-.3,.52,.05,1.06,.11,1.6,.16l1.3,.32c.06,.02,.12-.01,.14-.07,.02-.05-.03-.11-.09-.13l-.32-.09c.1-.05,.19-.14,.22-.25,.03-.11,.01-.22-.05-.31,.5,.01,1,0,1.5-.02,.03,0,.05-.02,.05-.05,0-.03-.03-.05-.06-.04-.69-.11-1.37-.17-2.06-.24-.5-.25-.98-.51-1.55-.67-.82-.24-1.64-.24-2.45-.22-.28-.08-.56-.15-.83-.21,.05-.05,.08-.11,.09-.17,0-.02,0-.03,0-.05l.75,.14c2.33,.43,4.6,.45,6.93,.66,.15,.02,.28-.06,.29-.19,.02-.13-.09-.25-.24-.27Zm-19.99,3.43s.04,0,.03-.07c.03,0,.05,.01,.08,.02,.05,.07,.1,.14,.14,.21-.1-.05-.2-.1-.31-.15,.02,0,.03,0,.05-.01Zm-.32,1.26l-.06-.15h0s.06,.05,.09,.07v-.04c.1,.04,.22,.08,.34,.13,.17,.14,.35,.24,.53,.29-.06,.05-.11,.11-.17,.17-.23-.16-.45-.36-.7-.42-.02-.01-.03-.03-.05-.05Zm2.68-5.47s-.08,0-.05,.07c-.23-.04-.47-.06-.71-.08-.05,0-.09,0-.14,.02-.03-.08-.05-.17-.07-.25,.11,.02,.21,.04,.32,.06,.26,.06,.51,.11,.75,.17l-.09,.02Zm.6-1.13l-.18-.06,.03,.04-.7-.11c-.34-.13-.7-.22-1.07-.25,.1-.06,.2-.12,.3-.18,.47,.14,.92,.33,1.41,.38l.09,.04,.14,.15h-.02Z"/><path d="M2.97,42.32s-.03,.02-.03,.04c0,.02,0,.05,.02,.05,.48,.08,.95,.16,1.42,.28,.02,0,.03-.02,.03-.04,0-.03,0-.05-.02-.05-.47-.12-.95-.2-1.42-.28Z"/><path d="M.94,39.76s-.01,.05,0,.06c.01,.02,.03,.02,.04,0,.01-.02,.01-.05,0-.06,0-.02-.03-.02-.04,0Z"/></g><g><path d="M72.68,7.15s.03-.05,.01-.07c-.02-.02-.05-.03-.07,0-.72,.52-1.44,1.02-2.18,1.5-.02,.02-.03,.05-.01,.07,.02,.02,.05,.03,.07,.02,.74-.48,1.47-.99,2.18-1.51Z"/><path d="M77.57,6.78s-.02-.05-.05-.06c-.03,0-.05,.02-.06,.05,0,.03,.02,.05,.05,.06,.03,0,.05-.02,.05-.05Z"/><path d="M76.32,3.46c-.8,.67-1.4,1.48-2.06,2.35-.47,.62-.9,1.14-1.41,1.72-.6,.68-1.26,1.18-1.93,1.73-.08,.05-.16,.08-.22,.15-.07,.06-.13,.13-.19,.19-.54,.41-1.12,.77-1.7,1.12,.56-.58,1.11-1.16,1.6-1.82,.03-.05,.03-.11,0-.15-.05-.04-.11-.04-.15,0-.77,.79-1.59,1.53-2.4,2.27-.55-.2-1.23-.02-1.68,.33-.17,.12-.28,.29-.38,.48,.08-.05,.16-.08,.25-.12-.2,.18-.29,.43-.38,.68l-.06,.03c-.59,.11-1.02,.55-1.54,.82,.05,.04,.11,.08,.15,.13-.11,.02-.23-.02-.35,.02,.06,.01,.11,.03,.17,.04h0c-.16,0-.31,.06-.43,.16-.27,0-.53,.04-.78,.13-.19-.02-.35,.02-.45,.16-.03,.02-.06,.04-.08,.07-.02,0-.02,.02-.04,.03-.35,.2-.67,.47-.93,.76-.05,.02-.06,.08-.04,.13-.31,.3-.61,.63-.89,.98l-.11,.15c-.46,.62-.83,1.25-1.39,1.71-.38,.66-.69,1.35-.96,2.1-.23,.64-.13,1.44-.2,2.17,0,.03,.02,.05,.04,.07,.03,0,.04,0,.04-.02,.34-.87,.72-1.7,1.34-2.32,.07-.07,.14-.13,.22-.19h.04c.09-.04,.17-.08,.25-.11-.02,.02-.04,.04-.06,.06-.05,.03-.05,.13,.02,.22,.02,.03,.06,.06,.09,.07-.1,.23-.19,.48-.26,.73-.04,.05-.07,.12-.08,.19-.24,.1-.47,.23-.72,.33l-.06,.02c-.08,.03-.1,.14-.06,.25,.02,.04,.03,.07,.05,.1-.31,.54-.67,1.04-.85,1.7,0,.03,.01,.08,.04,.12,0,0-.03,0-.02,.02,0,.1-.03,.19-.06,.27,0,.03,.01,.05,.04,.06s.04,.02,.05,0c.03-.09,.06-.18,.06-.29,0-.01,0-.03-.02-.04,.04,.02,.07,0,.07-.02,.36-.47,.6-1.05,.99-1.47-.1,.32-.24,.6-.39,.9-.17,.36-.29,.76-.51,1.07,0,0,0,.03,.01,.06,.02,.02,.05,.03,.06,.01,.48-.59,.55-1.55,1.16-2.05l.07-.05c-.03,.34-.05,.69-.08,1.02-.49,.54-.93,1.11-1.34,1.73-.03,.02-.02,.08,.02,.12s.09,.06,.11,.04c.36-.19,.72-.38,1.07-.6,0,.03,0,.08-.01,.11-.02,.02-.03,.06-.05,.08-.19,.16-.38,.34-.56,.54-.07,.05-.07,.2,.04,.33,.1,.12,.23,.18,.32,.13,0,0,0,.03-.01,.05-.01,.02,0,.05,.02,.06s.05,.01,.06,0c.02-.07,.03-.13,.05-.2,.42-.27,.79-.6,1.15-.93-.29,.48-.63,.92-1.01,1.31,0-.03-.02-.05-.05-.06-.02,0-.03,.01-.03,.04,0,.02,.03,.04,.04,.06-.2,.2-.43,.39-.67,.57-.01,0,0,.03,0,.05,.02,.03,.05,.04,.06,.03,.8-.56,1.41-1.34,1.9-2.22,.04-.03,.08-.07,.11-.1,.09,.08,.18,.15,.28,.19-.22,.25-.44,.52-.65,.78-.22,.17-.44,.33-.66,.5-.03,.02-.03,.09,.02,.15,.04,.04,.1,.06,.13,.04l.17-.12c0,.1,.06,.22,.14,.32,.08,.11,.17,.18,.27,.21-.15,.29-.3,.58-.4,.91-.01,.02,0,.04,.02,.06,.02,.02,.05,.01,.06,0,.27-.33,.52-.68,.78-1.02,.35-.09,.72-.16,1.03-.34,.45-.27,.72-.7,1-1.14,.16-.08,.32-.17,.46-.26,.02,.06,.06,.13,.11,.19,.02,.01,.02,.03,.04,.04-.12,.08-.25,.18-.38,.28-1.16,.87-1.86,2.15-2.64,3.37-.06,.08-.02,.22,.08,.32,.1,.11,.23,.14,.29,.06,.51-.42,.82-1,1.18-1.62,.25-.44,.49-.81,.78-1.21,.34-.47,.77-.78,1.2-1.12,.06-.01,.11-.04,.14-.08,.04-.04,.08-.09,.12-.12,.34-.26,.73-.45,1.11-.65-.33,.39-.65,.8-.91,1.26-.02,.03,0,.09,.03,.13,.05,.03,.09,.05,.12,.02,.45-.53,.95-1.01,1.46-1.5,.46,.27,.96,.25,1.24,.03,.11-.08,.17-.21,.21-.34-.06,.01-.11,.04-.17,.06,.12-.12,.15-.32,.17-.51h.04c.43-.01,.7-.3,1.05-.43-.05-.05-.09-.1-.13-.14,.07,0,.18,.06,.26,.04l-.13-.06h0s.03,0,.06,0c.39,.22,.87,.19,1.22-.1,.01-.02,.04-.03,.05-.05,.22-.11,.4-.27,.53-.45l.02-.02c.22-.2,.44-.38,.67-.58h0c.77-.7,1.52-1.42,2.25-2.23,.8-.9,1.48-1.78,2.39-2.52,.7-.92,1.31-1.87,1.9-2.88,.49-.85,.59-1.82,.89-2.74,0-.03-.01-.06-.04-.06-.03,0-.07,0-.06,.04-.71,1.17-1.46,2.3-2.47,3.25-.11,.11-.23,.21-.35,.31-.02,0-.04,0-.05,.02-.13,.07-.26,.14-.38,.2l.11-.1c.08-.06,.09-.17,.03-.25-.02-.03-.05-.05-.1-.06,.21-.32,.39-.65,.56-.99,.08-.07,.12-.16,.16-.25,.36-.21,.71-.42,1.07-.62l.1-.05c.12-.06,.18-.19,.15-.33,0-.04-.02-.08-.04-.12,.58-.75,1.2-1.48,1.63-2.34,.02-.04,.01-.1-.02-.13,.01,0,.04-.02,.04-.04,.04-.13,.09-.24,.16-.35,.02-.04,0-.07-.02-.08-.03,0-.06,0-.06,.02-.07,.11-.13,.24-.17,.37,0,.01,0,.03,.01,.05-.04,0-.07,0-.1,.04-.61,.68-1.09,1.47-1.76,2.1,.23-.43,.5-.82,.79-1.23,.34-.49,.6-1.03,.99-1.47,.02-.02,.02-.06,0-.07-.02-.02-.05-.03-.07,0-.83,.87-1.2,2.07-2.16,2.86-.04,.03-.07,.06-.11,.08,.14-.43,.27-.86,.4-1.28,.81-.8,1.59-1.65,2.31-2.53,.04-.03,.04-.1,0-.14-.03-.04-.09-.05-.14,0-.54,.34-1.09,.68-1.62,1.04,.02-.04,.03-.09,.06-.14l.09-.11c.31-.27,.62-.54,.92-.83,.12-.09,.14-.26,.05-.39-.11-.13-.27-.16-.39-.07,0-.03,.02-.04,.03-.07,.02-.02,.01-.05,0-.07s-.06-.01-.08,.01c-.04,.08-.08,.17-.12,.25-.65,.45-1.24,.96-1.83,1.49,.54-.69,1.11-1.33,1.75-1.92,0,.03,.02,.05,.05,.06,.03,0,.05-.02,.05-.05,0-.01,0-.03-.02-.04,0,0-.02-.01-.03,0,.34-.32,.7-.62,1.07-.89,.02-.02,.03-.05,0-.07-.02-.02-.05-.03-.08,0-1.24,.92-2.28,2.07-3.21,3.3-.05,.05-.12,.11-.18,.16-.1-.07-.21-.12-.32-.15,.37-.38,.74-.76,1.1-1.16,.34-.26,.69-.54,1.04-.81,.06-.04,.06-.11,.01-.17-.03-.05-.11-.06-.17-.02l-.26,.2c.02-.12-.01-.25-.1-.36-.08-.11-.19-.16-.3-.19,.29-.39,.56-.8,.81-1.24,.02-.02,0-.06-.02-.07-.03,0-.06,0-.07,.02-.47,.49-.9,1-1.36,1.49-.51,.21-1.01,.4-1.49,.72-.69,.45-1.19,1.08-1.68,1.7-.24,.14-.48,.3-.7,.46-.01-.08-.04-.15-.09-.21-.02-.01-.02-.03-.04-.04,.19-.14,.39-.29,.58-.44,1.82-1.4,3.13-3.2,4.54-4.95,.1-.1,.09-.26-.02-.37-.1-.1-.27-.1-.37,0Zm-12.48,10.83s.04,.02,.06,.02c-.04,.03-.1,.05-.14,.08-.03-.04-.06-.09-.11-.14,.03-.01,.06-.03,.08-.05,.03-.01,.06-.01,.1-.02,.07,.02,.13,.02,.19,.05-.06,.03-.12,.04-.18,.06Z"/><path d="M62.74,25.94s-.01,.04,0,.06c.02,.02,.04,.03,.06,.02,.46-.31,.93-.61,1.43-.88,.02-.01,.01-.04,0-.06-.02-.02-.05-.04-.06-.03-.49,.27-.96,.57-1.42,.89Z"/><path d="M58.99,25.37s.03,.05,.05,.06c.02,0,.04,0,.03-.03,0-.03-.02-.05-.05-.06-.02,0-.04,0-.03,.03Z"/></g><g><path d="M62.24,37.6v.09c-.05,0-.1-.05-.14-.12,.19,.88,1.1,1.37,1.91,1.46,.15,.18,.4,.22,.56,.09,.16-.13,.17-.37,.01-.55-.02-.05-.05-.11-.05-.16-.01-.46-.15-.9-.36-1.33l.06,.31c-.06-.13-.11-.25-.21-.36l-.04,.11c-.13-.51-.64-.87-1.13-.81-.49,.06-.78,.52-.65,1.02l.05,.23Z"/><path d="M62.01,39.01c-.09-.28-.18-.56-.26-.84v-.08l-.19,.23h.02c.35-.03,.71,.17,1.02,.37l.12,.06c.07,.02,.14,0,.2-.04,.13-.08,.15-.26,.04-.4l-.12-.16c-.21-.46-.74-.99-1.3-.8-.13,.05-.2,.19-.29,.3-.16,.13-.16,.39,0,.56,.16,.18,.41,.21,.57,.07l.06,.12h-.12c.17-.1,.36,.03,.54,.07l.21,.13,.24-.44-.13-.04s-.02,.06-.02,.06c-.26-.07-.52-.14-.76-.26l-.36-.11c-.13,0-.22,.11-.21,.23l.03,.18v-.09c.16,.31,.37,.61,.52,.92,.02,.05,.08,.08,.13,.07,.05-.02,.07-.07,.05-.13Z"/><g><path d="M61.11,38.23c-.01-.06-.02-.13-.08-.18h-.05l.02,.14c.01,.1,.07,.09,.12,.04Z"/><path d="M60.98,38.06v-.06l-.02,.05h.02Z"/><path d="M71.79,48.05c.62,.85,1.26,1.68,1.91,2.5,.02,.03,.06,.04,.08,.02,.02-.02,.02-.05,0-.08-.65-.83-1.29-1.65-1.91-2.5-.02-.03-.06-.03-.08-.02-.02,.02-.03,.05,0,.08Z"/><path d="M74.63,55.87s-.06,.02-.06,.05c0,.03,.02,.06,.06,.06,.03,0,.06-.02,.06-.05,0-.03-.03-.06-.06-.06Z"/><path d="M72.69,57.21c-.13-.08-.25-.15-.39-.19-.02,0-.04-.03-.04-.05-.03,.04-.08,.04-.13,.02-.96-.52-1.79-1.24-2.65-1.91-.03,.02-.07,.03-.11,.04-.14,.02-.28-.05-.37-.18l-.05-.11-.78-1.19c-.1-.04-.21-.09-.29-.18-.38-.2-.75-.41-1.11-.65,0,.04-.03,.08-.06,.11-.08,.06-.2,.04-.28-.04l-.12-.12,.26,.41s.02,.04,.03,.06c.12,.13,.23,.27,.36,.4,1.12,1.12,2.4,1.99,3.71,2.83,.03,0,.05,.04,.05,.07,0,.03-.04,.05-.07,.04-1-.38-2.05-.54-3-1.11-1.13-.67-2.21-1.37-3.26-2.14-.9-.99-1.92-1.73-2.98-2.59-1.44-1.16-2.67-2.38-3.95-3.64-.53-.42-.66-1.16-.29-1.65,.23-.3,.58-.44,.95-.41l-.11-.12-.13-.24c-.12-.23-.17-.48-.12-.73l.05-.31c.17-.52,.17-1.09,.39-1.6l.17-.11v-.07c0-.21,.04-.42,.16-.58l.17-.16c.21-.17,.44-.29,.7-.37,.07-.07,.14-.13,.23-.17,.09-.25,.23-.46,.48-.6,0-.1,.08-.16,.18-.15,.03,0,.06,.02,.09,.04h0c.02-.07,.02-.09,.03-.17l-.05-.1-.18-.29c-.04-.15-.01-.29-.01-.29q.19-.4,.33-.51l.06-.02-.05-.17s0-.09,0-.09q.06-.07,.07-.11s.05-.06,.05-.06q.12-.03,.14-.05s.06-.01,.06-.01l.12,.05-.06,.29,.09-.04-.05,.11,.06-.09v-.03q.12,.16,.18,.22c.05,.07,.12,.1,.12,.1l.03-.05,.23,.35s0,.06-.01,.08c.03,0,.07,0,.1,.04l.06,.09h.03l.1,.03h.02l.43,.13c.04,.05,.07,.11,.09,.16v-.07s.08-.09,.08-.11c-.18-.45-.46-.85-.73-1.26-.07-.05-.09-.15-.04-.21,.05-.06,.14-.07,.21-.01,1.04,.32,1.84,1.22,2.26,2.2l.46,.65v-.06l.1,.2v.02l.03-.23-.04-.11c-.38-.48-.59-1.07-.89-1.61-.16-.29-.24-.6-.37-.9-.05-.06-.04-.14,.01-.19,.05-.04,.14-.02,.19,.04,.8,.63,1.54,1.53,1.69,2.5,.13,.13,.22,.29,.24,.47h0l.02-.17c.07,.12,.04,.26,.09,.38l.11-.17c.39,.57,.94,1.06,1.17,1.7l.04,.06c.28,.1,.57,.21,.8,.43l-.18-.28c.22,.11,.42,.24,.59,.43,.45,.5,.75,1.26,.63,1.86,.93,.91,1.85,1.84,2.81,2.73,.05,.04,.06,.12,.03,.16-.04,.04-.11,.05-.16,0-.77-.56-1.49-1.19-2.2-1.83,.47,.65,.93,1.3,1.46,1.91l.23,.22c.08,.07,.13,.16,.18,.25,.69,.77,1.32,1.53,2.12,2.23,.69,.6,1.3,1.11,2.02,1.68,1.01,.8,1.95,1.52,2.75,2.49,.12,.12,.14,.3,.04,.41-.1,.11-.28,.1-.4-.02-2.01-1.73-4.07-3.31-5.82-5.39l-.56-.67s-.02,.03-.04,.04c-.06,.05-.13,.08-.21,.09,.2,.26,.39,.52,.58,.8,.73,.57,1.46,1.15,2.03,1.95,.39,.55,.65,1.12,.93,1.69,.58,.54,1.17,1.06,1.73,1.62,.03,.02,.04,.05,.02,.08-.01,.03-.05,.03-.08,.01-.49-.31-.95-.64-1.4-1-.01,.13-.07,.24-.17,.32-.11,.08-.24,.11-.37,.08l.24,.3c.05,.06,.05,.14,0,.18-.06,.05-.14,.03-.18-.03l-.98-1.2c-.46-.44-.91-.87-1.36-1.29-.01,.12-.05,.24-.12,.35h0l.19,.21c1.43,1.08,2.75,2.32,3.84,3.77,.02,.03,.02,.06,0,.09-.02,.02-.06,.02-.08-.01-.33-.44-.68-.86-1.05-1.26h0s-.02,.06-.06,.05c-.03,0-.06-.04-.06-.06,0-.03,.03-.05,.06-.05-.69-.75-1.43-1.43-2.22-2.06,.62,.68,1.23,1.37,1.78,2.11l.28,.16s.03,.06,.02,.08c-.01,.02-.05,.03-.08,0l-.08-.05c.1,.14,.09,.33-.03,.43-.13,.1-.32,.06-.43-.08-.33-.35-.65-.71-.97-1.07l-.12-.1-.16-.07c.44,.61,.85,1.23,1.27,1.85,.04,.05,.04,.12,0,.16-.04,.04-.11,.03-.15-.02-1.01-.86-1.98-1.76-2.92-2.7l-1.41-.51,.11,.13c.94,1.08,2.26,1.55,3.27,2.53,.03,.02,.03,.06,0,.08-.02,.02-.06,.02-.08,0-.51-.46-1.09-.78-1.66-1.18-.47-.33-.91-.65-1.39-.92,.74,.76,1.63,1.33,2.41,2.04,.04,.03,.06,.07,.05,.11,.01,0,.03-.01,.05,0,.14,.05,.28,.12,.41,.21,.03,.01,.04,.05,.03,.08,0,.03-.04,.03-.08,.02Zm-10.04-15.97v-.04l.03,.11-.07,.26,.04-.32Zm-1.76-.56h0l.04-.14-.04,.14Zm8.74,6.2c-.38-.42-.72-.87-1-1.38l.31,.28c.24,.36,.47,.73,.69,1.11Zm-7.14-7.03c.02,.19,0,.38-.03,.56,.09,.05,.17,.11,.24,.19,.18,.21,.35,.42,.51,.64,.03-.08,.07-.03,.1-.01l.08,.06-.47-.75c-.14-.23-.32-.46-.43-.7Zm-1.64-1.18v-.04l.13-.05-.13,.09Zm-.2,.09l.02,.04s-.04,0-.02-.04Zm.16,.37s.01-.06,0-.08v.08Zm-2.33,2.73l.53-.33-.52,.31v.03Z"/></g></g></g></g></g></svg>